PathFileType  4	(X/Y/Z) C:\Users\antoi\Documents\MyRepositories\mobilecap\ResultsAnalysis
DataRate	CameraRate	NumFrames	NumMarkers	Units	OrigDataRate	OrigDataStartFrame	OrigNumFrames
100.0	100.0	6	51	mm	100.0	215	245
Frame#	Time	r_knee			r_shank_antsup			r_ankle			r_calc			r_5meta			r_toe			L_knee			L_shank_antsup			L_ankle			L_calc			L_5meta			L_toe			r_sh2			r_sh3			r_sh4			L_sh2			L_sh3			r_thigh1			r_thigh2			r_thigh3			r_thigh4			r_thigh5			L_thigh1			L_thigh2			L_thigh3			L_thigh4			r.ASIS			r.PSIS			L.ASIS			L.PSIS			C7			R_Shoulder			L_Shoulder			R_Sternum			L_Sternum			R_humerus			R_elbow_med			R_elbow_lat			R_forearm			R_wrist_radius			R_wrist_ulna			L_humerus			L_elbow_med			L_elbow_lat			L_forearm			L_wrist_radius			L_wrist_ulna			R_HJC			L_HJC			R_HJC_reg			L_HJC_reg			
		X1	Y1	Z1	X2	Y2	Z2	X3	Y3	Z3	X4	Y4	Z4	X5	Y5	Z5	X6	Y6	Z6	X7	Y7	Z7	X8	Y8	Z8	X9	Y9	Z9	X10	Y10	Z10	X11	Y11	Z11	X12	Y12	Z12	X13	Y13	Z13	X14	Y14	Z14	X15	Y15	Z15	X16	Y16	Z16	X17	Y17	Z17	X18	Y18	Z18	X19	Y19	Z19	X20	Y20	Z20	X21	Y21	Z21	X22	Y22	Z22	X23	Y23	Z23	X24	Y24	Z24	X25	Y25	Z25	X26	Y26	Z26	X27	Y27	Z27	X28	Y28	Z28	X29	Y29	Z29	X30	Y30	Z30	X31	Y31	Z31	X32	Y32	Z32	X33	Y33	Z33	X34	Y34	Z34	X35	Y35	Z35	X36	Y36	Z36	X37	Y37	Z37	X38	Y38	Z38	X39	Y39	Z39	X40	Y40	Z40	X41	Y41	Z41	X42	Y42	Z42	X43	Y43	Z43	X44	Y44	Z44	X45	Y45	Z45	X46	Y46	Z46	X47	Y47	Z47	X48	Y48	Z48	X49	Y49	Z49	X50	Y50	Z50	X51	Y51	Z51	

215	2.14000000	-142.86512	1042.06032	-435.65581	-117.32108	922.46997	-427.95868	-223.06294	592.56720	-446.52178	-261.66379	608.64429	-517.80263	-181.20812	441.71124	-405.42570	-108.78136	441.29771	-444.30882	-78.52449	1021.02972	-801.58295	-31.29627	925.26293	-783.72357	-76.26199	579.15569	-790.42525	-145.48445	584.03017	-733.56971	-0.23830	440.60229	-806.07113	44.44340	445.20889	-741.59040	-114.42415	808.20155	-436.04150	-192.03904	918.69659	-404.99736	-186.94488	800.97453	-397.92729	-109.94328	917.26289	-827.35370	-73.70961	800.34879	-839.37008	-42.86513	1274.64358	-438.96308	-43.29811	1162.69879	-445.54060	-86.24741	1135.30067	-402.38229	-146.29366	1267.85276	-392.48032	-140.33806	1150.58847	-404.38162	-6.69021	1276.36879	-812.24757	3.35677	1140.34834	-793.28317	-109.33084	1261.89540	-857.77449	-99.81917	1125.56197	-834.96901	-54.02536	1531.94691	-482.04794	-217.00927	1611.06722	-605.16307	-4.55716	1511.43828	-742.80472	-199.71518	1606.40176	-699.42507	57.43564	2055.08607	-658.55438	56.86792	2044.36923	-502.88825	115.53631	2015.53471	-769.74351	161.96340	1962.80150	-595.48086	180.59937	1951.79194	-637.09112	112.60749	2063.37974	-393.61369	248.89666	1973.47166	-219.65504	205.19436	2053.17718	-208.35551	325.96483	2131.66685	-302.82050	413.52263	2184.43196	-347.80095	424.95360	2206.56755	-313.84094	209.96452	2006.17381	-867.62879	367.46226	1866.73445	-975.39559	361.17692	1953.67476	-990.23711	401.98094	1992.07904	-836.08858	459.82448	2040.61753	-743.91121	493.42251	2061.15158	-773.41463	-144.43493	1473.56469	-531.11578	-105.93257	1447.38157	-739.36584	-136.52647	1468.23955	-532.60706	-104.85935	1459.69709	-705.20951	
216	2.15000000	-139.82094	1031.22876	-435.65650	-114.97403	911.64875	-428.15234	-221.71071	582.34888	-448.02620	-260.17438	599.05796	-519.10282	-180.75806	431.25818	-407.41006	-108.44722	430.31491	-446.58748	-75.28793	1010.50035	-801.36165	-28.23194	914.60647	-783.46300	-74.24632	568.63172	-789.89183	-143.34400	573.48885	-733.23996	2.04321	430.39895	-806.21235	46.81426	434.96149	-741.74214	-112.35640	797.46249	-436.68788	-189.79769	907.91376	-405.43613	-185.24833	790.27307	-398.82071	-106.81676	906.80172	-827.43707	-70.82503	790.21068	-840.11817	-40.82837	1264.22763	-440.71734	-40.69050	1152.31407	-446.51461	-83.01160	1124.78335	-402.85414	-143.45598	1257.08109	-392.69456	-137.18831	1139.91541	-404.39297	-4.18921	1266.16866	-811.31311	6.14402	1130.22792	-792.12622	-106.32073	1251.32932	-857.72109	-96.44491	1114.98409	-834.92168	-52.79152	1520.86681	-483.27969	-215.73360	1600.69355	-605.33309	-3.24963	1500.77733	-742.72922	-198.41753	1595.78728	-699.59332	59.75445	2043.99770	-659.28516	59.17949	2033.51294	-504.18939	117.91144	2004.27524	-770.32972	164.38953	1951.92335	-596.57369	182.89066	1940.61013	-638.12283	115.34506	2052.54942	-394.78291	252.32961	1962.40583	-221.84760	209.11486	2042.39315	-210.19051	329.09635	2120.39682	-305.84947	416.52429	2172.90171	-351.63365	428.39638	2194.93451	-317.79210	212.91722	1994.69788	-867.46490	370.91928	1855.96711	-974.53632	364.69643	1942.84288	-989.44993	405.14531	1981.29344	-835.50504	463.43114	2029.43691	-742.80736	496.91220	2050.06543	-772.27730	-143.28236	1462.74888	-531.64222	-104.83199	1436.86113	-739.93885	-135.31752	1458.35140	-533.55635	-103.77011	1449.41286	-705.28796	
217	2.16000000	-136.61618	1019.38164	-435.55507	-112.59248	899.80326	-428.25943	-220.59561	571.40976	-449.52939	-258.74101	588.61621	-520.57887	-180.77817	420.03855	-409.13468	-108.60950	418.26927	-448.56774	-72.08880	999.07435	-801.20753	-25.17007	902.87392	-783.18432	-72.12900	557.36704	-789.72202	-141.05507	561.94012	-732.67773	4.49322	419.24254	-806.17790	49.40743	423.89555	-742.00513	-110.43556	785.55631	-437.37797	-187.56522	896.07694	-406.05072	-183.43880	778.47257	-399.80276	-103.85120	895.29690	-827.09728	-68.05596	779.33322	-841.15913	-38.80835	1252.88886	-442.33988	-38.04743	1141.24488	-447.01554	-79.70321	1113.46315	-403.18772	-140.68362	1245.41354	-392.88960	-134.12390	1128.32802	-404.37651	-1.91847	1254.98747	-810.37931	8.88918	1119.21653	-791.14718	-103.49283	1239.77197	-857.86618	-93.12735	1103.44790	-834.88659	-51.52001	1508.81671	-483.85309	-214.45284	1589.51745	-605.32077	-2.10303	1489.06130	-742.55177	-197.12229	1584.39871	-699.75331	62.07726	2032.00726	-659.98275	61.52937	2021.61766	-505.46121	120.62568	1991.77844	-770.28678	166.75166	1939.98716	-597.73869	185.09609	1928.38880	-639.24134	118.03084	2040.71761	-395.93310	255.72704	1950.43502	-223.98458	213.00419	2030.58881	-212.06906	332.27178	2108.12831	-308.77135	419.60316	2160.39842	-355.25589	431.86056	2182.34131	-321.52380	215.86939	1982.40144	-867.01045	374.35932	1844.21979	-973.66492	368.17995	1931.15712	-988.77505	408.35301	1969.35259	-834.48636	467.07885	2017.18294	-741.59619	500.38336	2037.87818	-770.92456	-142.27818	1451.10330	-531.89786	-103.89238	1425.38432	-740.22742	-134.27551	1447.33839	-533.95541	-102.85453	1438.05787	-705.16529	
218	2.17000000	-133.34207	1006.51259	-435.23355	-110.16964	886.87428	-428.30775	-219.82541	559.60829	-451.05498	-257.58671	576.94587	-522.48952	-181.11110	407.98040	-410.66418	-109.03665	405.48929	-450.13446	-68.94154	986.71662	-801.25812	-22.13544	890.21194	-783.05790	-69.87365	545.13570	-789.61676	-138.61711	549.42594	-732.12171	7.22568	407.17032	-806.19256	52.24561	411.99670	-742.18776	-108.68256	772.53372	-437.96657	-185.23145	883.44953	-406.49921	-181.56162	765.78442	-400.64072	-100.97327	882.80971	-826.64846	-65.40759	767.14720	-841.53111	-36.85343	1240.58300	-443.61310	-35.40815	1129.28732	-447.32462	-76.55300	1101.23742	-403.57739	-138.13589	1232.77211	-393.05523	-130.99492	1115.78705	-404.20263	0.18990	1242.98606	-809.73975	11.66727	1107.25612	-790.39105	-100.81561	1227.23437	-858.26526	-89.91950	1090.91167	-834.91990	-50.35700	1495.69466	-484.06927	-213.19790	1577.48615	-605.26713	-1.08026	1476.23360	-742.46608	-195.83331	1572.26805	-700.08158	64.41172	2019.03565	-660.52812	63.91708	2008.67657	-506.69545	123.15989	1978.33532	-770.74589	168.95393	1926.83166	-598.93695	187.10351	1914.93063	-640.40400	120.58133	2027.91030	-397.13023	259.16830	1937.51057	-225.90977	216.83233	2017.73476	-213.99719	335.54906	2094.81268	-311.58256	422.82436	2146.87351	-358.64671	435.35304	2168.80127	-325.03527	218.27792	1969.12165	-867.02421	377.79144	1831.48352	-972.71579	371.61741	1918.33929	-987.82562	412.06487	1955.81659	-832.29952	470.68199	2004.05147	-740.48275	503.83864	2024.84478	-769.68435	-141.51292	1438.54036	-532.13951	-103.15186	1412.95903	-740.49047	-133.44918	1435.06066	-534.14153	-102.13314	1425.64978	-705.13260	
219	2.18000000	-130.01827	992.67365	-434.70925	-107.75776	872.93449	-428.27436	-219.39418	546.80192	-452.59495	-256.81543	564.05524	-524.72892	-181.59917	395.09606	-412.02574	-109.37478	392.18798	-451.19559	-65.70347	973.34890	-801.39240	-19.09716	876.77533	-783.24476	-67.47540	531.75128	-789.23094	-136.02387	535.97073	-731.78559	10.28078	394.21573	-806.31010	55.39870	399.24479	-742.26995	-107.07665	758.62876	-438.33565	-183.16038	870.25115	-406.34418	-180.01989	752.32154	-401.42071	-98.09058	869.41438	-826.52150	-62.81264	753.60081	-841.24586	-34.97317	1227.37537	-444.50340	-32.80287	1116.17591	-447.78291	-73.65806	1087.91806	-404.16639	-135.81244	1219.11343	-393.19135	-127.90529	1102.20190	-403.98125	2.25052	1230.09757	-809.55185	14.37269	1094.32236	-789.86711	-98.34256	1213.60102	-858.59479	-86.84738	1077.34263	-835.04105	-49.28913	1481.52421	-484.38853	-211.90316	1564.52455	-605.27020	-0.13284	1462.30678	-742.50092	-194.45073	1559.32278	-700.38854	66.75464	2004.99150	-661.06280	66.34251	1994.68339	-507.88416	124.96234	1964.20234	-772.40619	170.91948	1912.31029	-600.11827	188.82072	1900.05041	-641.55465	123.01626	2014.14436	-398.37365	262.71527	1923.48239	-227.93208	220.64028	2003.95563	-215.79176	338.76631	2080.62672	-314.32945	425.96805	2132.47333	-362.00924	438.82489	2154.33216	-328.51070	220.34152	1954.84967	-867.58480	381.13293	1817.73674	-971.71237	375.01709	1904.35271	-986.70783	416.05413	1940.98634	-829.65950	474.20438	1990.12782	-739.54790	507.25147	2011.06392	-768.68494	-140.86434	1425.00610	-532.47442	-102.56205	1399.58272	-740.85548	-132.75188	1421.60317	-534.56511	-101.41789	1412.26337	-705.34240	
220	2.19000000	-126.67018	977.86481	-434.22731	-105.43145	858.01222	-428.21674	-219.24794	533.04242	-454.11866	-256.42185	550.31760	-526.77122	-182.16541	381.44524	-413.13563	-109.66162	378.19458	-452.00247	-62.33490	959.01272	-801.57623	-15.99735	862.42471	-783.56200	-64.89970	517.29669	-788.85522	-133.27577	521.51673	-731.67843	13.64971	380.24932	-806.18867	58.88972	385.62986	-742.27025	-105.59610	743.84576	-438.57509	-181.41373	856.11782	-406.00525	-179.14210	737.91275	-402.53417	-95.10763	855.07164	-826.57085	-60.14741	739.10677	-840.97145	-33.17263	1213.29807	-445.17788	-30.22181	1101.94917	-448.36890	-70.74630	1073.62667	-404.41779	-133.61844	1204.49903	-393.26922	-125.06021	1087.51444	-403.89305	4.20442	1216.08650	-809.56195	16.99586	1080.37196	-789.54492	-96.14111	1198.86723	-858.74461	-83.87349	1062.76758	-835.27336	-48.36473	1466.64337	-484.40332	-210.55774	1550.65379	-605.27861	0.73851	1447.34679	-742.46547	-192.98112	1545.47536	-700.52839	69.10649	1989.86474	-661.66672	68.80662	1979.62792	-509.02241	126.36993	1949.18930	-774.54573	172.79148	1896.57916	-601.26327	190.41380	1883.93236	-642.67146	125.44139	1999.35381	-399.55323	266.33270	1908.40173	-230.03780	224.43266	1989.30578	-217.36381	341.88025	2065.59624	-317.05707	428.96801	2117.18789	-365.47261	442.25976	2138.91110	-332.08790	222.47988	1939.63318	-868.18233	384.30611	1802.95893	-970.67332	378.38774	1889.29948	-985.66230	419.70247	1925.65847	-828.03813	477.72762	1975.21787	-738.74060	510.70172	1996.36079	-767.78678	-140.29389	1410.69683	-532.59041	-102.01703	1385.20913	-740.96816	-132.20026	1407.13256	-534.77521	-100.69815	1397.85185	-705.48912	
